 <svg
      viewBox="0 0 39 39"
      fill="none"
      xmlns="http://www.w3.org/2000/svg"
      
    >
      <path
        d="M1.14769 34.7652L1.9661 35.0626L1.14769 34.7652C0.459998 36.6578 2.26001 38.5117 4.17268 37.8737L11.7704 35.3394C14.1724 36.3258 16.9664 36.8205 20.1019 36.8205C25.6935 36.8205 30.2031 35.2435 33.3138 32.1306C36.4244 29.0178 38 24.5053 38 18.9102C38 13.3151 36.4244 8.8026 33.3138 5.6898C30.2031 2.5769 25.6935 1 20.1019 1C14.5102 1 10.0006 2.5769 6.88997 5.6898C3.77941 8.8026 2.20385 13.3151 2.20385 18.9102C2.20385 22.1571 2.73327 25.0383 3.78871 27.4972L1.14769 34.7652Z"
        fill="#2E2E30"
        stroke="#2E2E30"
        strokeWidth="3"
      />
      <path
        d="M30.643 24.2838C31.6523 24.9416 32.3764 25.4191 32.8152 25.7162C33.6051 26.2891 34 26.8408 34 27.3714C34 27.8806 33.6709 28.6021 33.0127 29.5358C32.3544 30.4695 31.6852 30.9363 31.0051 30.9363C30.5882 30.9363 29.9519 30.6499 29.0962 30.0769C28.9865 30.0133 28.6793 29.8117 28.1747 29.4721C27.67 29.1326 27.2751 28.878 26.9899 28.7082C24.9494 30.2361 22.6565 31 20.1114 31C16.7105 31 13.8363 29.8329 11.4886 27.4987C9.16287 25.1645 8 22.3846 8 19.1592C8 17.3979 8.32911 15.7533 8.98734 14.2255C9.64557 12.6764 10.5232 11.382 11.6203 10.3422C12.7173 9.30239 13.9789 8.48541 15.4051 7.89125C16.8312 7.29708 18.3013 7 19.8152 7C23.0624 7 25.8819 8.13528 28.2734 10.4058C30.665 12.6764 31.8608 15.5517 31.8608 19.0318C31.8608 20.7931 31.4549 22.5438 30.643 24.2838ZM13.8253 19C13.8253 20.8886 14.4506 22.4271 15.7013 23.6154C16.9738 24.7825 18.389 25.366 19.9468 25.366C21.5046 25.366 22.9089 24.7931 24.1595 23.6472C25.4101 22.5013 26.0354 20.9629 26.0354 19.0318C26.0354 17.1008 25.3992 15.5517 24.1266 14.3846C22.8759 13.2175 21.4717 12.634 19.9139 12.634C18.3561 12.634 16.9519 13.2281 15.7013 14.4164C14.4506 15.5836 13.8253 17.1114 13.8253 19Z"
        fill="white"
      />
    </svg>